<svg xmlns="http://www.w3.org/2000/svg" xmlns:xlink="http://www.w3.org/1999/xlink" width="512" height="512" viewBox="0 0 512 512"><path fill="#D6E5E5" d="M429.3,258.5c-5.4-0.1-12.3,0.2-17.1-2.8c-8.3-5.2-11.7-14.8-8.7-24.2c5.1-15.8,26.3-13.4,40.3-13c-2.1-27.8-10.2-54.9-26.4-77.9c-26.1-36.8-69.6-57.9-114.4-59.4c-4.8-0.2-9.7-0.1-14.5,0.2c0,0.7-0.2,1.4-0.5,2.1c-4.6,10.2-2.2,23.1-8,33c-6.2,10.5-21.6,7.2-31.5,7.1c-3.1,0-5.6-1.9-5.9-5.1c-0.9-8.4-2.7-19.2-0.8-28.4c-24.3,7.7-47.4,19.8-68.2,34.4c-33.3,23.2-62.6,55.9-71.4,95.8c8.8-0.7,18.8-2,26.1,2.7c9.1,5.8,5.4,19.7,5.2,28.6c0,2.4-1.2,4.9-3.7,5.6c-6,1.8-12.4,1.8-18.6,2.1c-3.2,0.2-9.3-0.3-13.1,1.2c-1,34.1,6.3,67.7,25.5,97.1c11,16.9,25.2,32.1,42.1,43.2c17.6,11.5,37,18.7,57.6,22.5c5.7,1.1,11.5,1.9,17.3,2.5c-2.1-8.2-2-17.9-1.5-25.7c0.3-4.7,1.2-9,4.9-12.1c3.6-3.1,8.6-4.6,13.2-5.7c9.1-2,22.5-3.1,25.1,8.5c2.2,9.8,1,19.8,1,29.8c0,3.1-2.1,5-4.4,5.6c28.2-2.5,55.9-10.9,80.1-25.7c41.7-25.7,68.2-69.2,79.2-116.4c1.9-8.2,3.4-16.6,4.4-25.1c-0.8-0.1-1.6-0.1-2.3-0.2C436.7,258.5,433,258.5,429.3,258.5z M242.5,149.4c0-3,1.9-4.8,4.2-5.5c0.6-0.2,1.2-0.4,1.9-0.4c8.3-0.5,15.2,5.2,21.5,11.2c0.5-5.4,1.7-10.7,4-15.1c3.4-6.2,13.2-1.4,9.9,4.9c-3.4,6.3-3.4,15.2-3.4,22.1c0,4.7-5.2,7.9-9.1,4.6c-3.9-3.3-7.4-7.1-11.2-10.4c-1.8-1.5-4.1-3.8-6.6-5.2v12c0,7.1-11,7.9-11,0.8V149.4z M281.6,356.6c-3.6,5.6-12.1,8.8-18.6,8.9c-8.3,0.1-25.2,1.5-26.4-10.1c-0.7-6.7,9-7.8,10.8-2c0,0,0,0,0.1,0c1.2,0.3,2.5,0.6,3.7,0.8c2.5,0.3,5,0.4,7.5,0.3c3.7,0,13-0.1,14.1-4.6c0.3-1.2,1.2-3,0.1-3.5c-1.6-0.7-3.6-0.8-5.4-0.8c-5.1-0.1-10.5,0.3-15.5-1.2c-4.6-1.4-9.8-3.9-10.4-9.3c-0.4-4.5,2.4-8.2,5.7-10.8c6.2-4.9,18-9,24.5-2.4c5,5-2.3,13.3-7.3,8.3c-0.6-0.6-1.1-0.8-3.1-0.5c-1.6,0.3-3.3,0.8-4.8,1.6c-0.9,0.5-2.3,1.4-3.2,2.1c8.6,3.2,20.6-1.9,27.7,5.7C285.2,343.7,284.9,351.5,281.6,356.6z M392.9,183.4c-4.4,10.4-14.8,17.3-22,25.6c-8.9,10.1-17.2,20.8-26,31.1c-8.5,10-17.8,19.2-25.8,29.6c-3.6,4.7-6.5,9.8-10.8,14c-1.7,1.6-3.2,3.4-4.9,5c-0.3,0.3-0.7,0.7-1.1,1c-0.1,1.4-0.8,2.8-2.3,3.9c-0.1,0.1-0.2,0.2-0.4,0.2c-0.8,0.8-1.8,1.5-2.8,1.7c-8.4,4.4-18.9,4.5-27.9,6.5c-16,3.6-31.9,7.5-47.9,10.8c-13,2.7-26,5.2-39,7.6c-9.8,1.8-19.8,3.8-29.7,4c-4.6,3.9-11.7-2.9-7.5-8.1c16.9-20.9,33.6-41.9,51.6-61.9c7.5-8.3,15.9-16.3,21.9-25.8c4.5-7.1,9-16,16.6-20.2c1.2-0.7,2.5-0.9,3.6-0.7c0.3-0.1,0.7-0.2,1-0.2c27-3.6,54.3-9.7,80.6-16.7c14.5-3.8,29.2-7.3,43.7-11.2c7.3-1.9,18-8.2,25.6-4.6c1.3,0.6,2.1,1.5,2.6,2.5C393.3,179.1,393.9,181.2,392.9,183.4z"/><path fill="#14B6B9" d="M272.3,241.6c-2.4-1.1-5.2-1.9-7.9-1.7c-2.1,0.2-2,1.2-1.9-0.3c-0.1,1.9-1,3.4-2.3,4.4c-1,5.3,1.3,9.7,6.5,11.9c3.2,1.3,9.8,2.4,11.8-1.6C281.4,248.7,277.4,243.8,272.3,241.6z"/><path fill="#EF4823" d="M374.5,187.9c-4.8,1.6-9.7,2.9-14.6,4.2c-14,3.7-28.1,7.2-42.2,10.5c-25.5,5.9-51.1,12.4-77.2,15.8c-0.3,0-0.6,0.1-0.9,0c-6.4,4.5-10.1,13.4-14.3,19.6c-6.5,9.6-15.3,17.9-23.1,26.5c-14,15.5-27.1,31.8-40.2,48.1c6.5-0.8,12.9-2.1,19.2-3.2c12.7-2.3,25.5-4.7,38.2-7.4c15.4-3.3,30.6-7,46-10.4c7.9-1.8,18.3-1.7,25.8-5.6c0.6-1.1,1.4-2.1,2.3-3.1c3.7-3.7,7.7-7.3,10.8-11.5c8.2-11.3,17-21.5,26.4-31.9c9.9-10.9,18.8-22.5,28.4-33.7c4.2-4.9,8.5-9.5,13.1-13.9c1.7-1.6,3.4-3.3,5-5C376.3,187.3,375.4,187.6,374.5,187.9z M289.1,257.7c-4.3,10.1-16.3,12.1-25.7,8.6c-10.5-3.9-16.6-14.4-13.8-25.4c0.4-1.5,1.3-2.6,2.3-3.3C256.7,218.7,299.3,233.7,289.1,257.7z"/><path fill="#14B6B9" d="M122.8 233c-.1-.3-.1-.5-.2-.6-.4-.2-.8-.4-1.2-.6-6.9-1.9-14.1-.7-21.2-.3 0 .3-.1.5-.1.8.3.8.5 1.8.3 2.9-.7 4.7-1.2 9.5-1.6 14.2 7.7-1.5 16.2-.3 23.9-1.6.2-2.8.4-5.5.4-8.3C123.2 237.3 123.4 234.9 122.8 233zM272.5 421.3v-1.8c0-.2 0-.4 0-.6.1-7 .8-13.9 0-20.9-.2-1.8-.3-3.6-1-5.2-.4-1 .3-.3-.9-.5-3.5-.6-7.4-.2-10.8.7-2.1.5-8.1 1.8-8.9 3.6-.9 2.1-.9 5.9-.9 8.6.1 6.8.1 14.9 2.5 21.5 8.2.3 16.3.2 24.5-.4C274.6 425.9 272.5 424.4 272.5 421.3zM254.9 86.3c-.2.4-.4.9-.7 1.3-2.6 3.5-2 10.4-1.9 14.5.1 3.5.4 7.1.7 10.6 3.9.2 7.8.5 11.7.1 3.1-.3 5.8-.7 6.6-3.9 2.2-8.6 2.5-18.1 5.3-26.6C269.3 83.2 262 84.6 254.9 86.3z"/><path fill="#14B6B9" d="M459,153.6c-9.1-21.2-21.7-41.8-38.5-57.8c-15.7-15-34.6-26.2-54.9-33.7c-42.2-15.6-90.2-17-134.1-7.6c-21.3,4.6-42.7,11.4-61.7,22.3c-21.1,12.2-40,28.1-56.1,46.3C82.9,157.9,58,204.2,63,251.9c0.6,1,0.8,2.2,0.6,3.7c0,0.1,0,0.2-0.1,0.4c0.1,0.4,0.1,0.8,0.1,1.2c0.2,1.6-0.2,2.9-0.9,3.9c-2,15.2-0.9,31.7,2,46.6c3.2,16.1,8.9,32,16.5,46.5c15.6,29.6,38,55.6,65.1,75.3c19.3,14,41.4,25.2,64.8,30.5c22.4,5,45.4,7,68.3,5.4c45.9-3.3,91.2-19.6,126.8-49c36.8-30.4,58.9-73,67.4-119.6C482.4,249,478.2,198.2,459,153.6z M454,257.9c-1.1,9.5-2.7,18.9-4.9,28.1c-11.2,46.8-36.3,91.5-76.8,118.9c-39,26.3-87.5,36.8-134.1,31.7c-23.4-2.5-47.1-8.5-67.7-20.1c-20.2-11.3-37.7-27-51.2-45.9c-13.4-18.8-23.3-40.4-28.2-63c-3.4-15.6-4.5-31.4-4-47.1c-1.2-1.6-1.4-3.8,0.3-5.6c0.3-4.5,0.7-9.1,1.2-13.6c0-0.3,0-0.5,0-0.8c0.6-12.4,2.7-24.5,6.6-36.3c15.2-45.4,53.5-79.9,94.4-102.7c40.4-22.5,84.9-36.4,131.4-29.7c44.6,6.4,86.5,30.7,110.2,69.7c20,32.9,26.7,72.2,23.5,110.4C455.5,253.9,455.3,256.3,454,257.9z"/><path fill="#14B6B9" d="M444.3,229.4c-4.9-0.1-9.9-0.3-14.8-0.1c-3.6,0.2-12-0.2-14.5,3.1c-4.2,5.5-0.6,13.6,5.9,14.5c5,0.7,10,0.6,15,0.6c2.6,0,5.3,0.4,7.9,0.6C444.2,241.9,444.4,235.7,444.3,229.4z"/><path d="M488.8,239.1c-1.7-47.9-16.5-96.5-46-134.7c-56.2-72.7-166-79.7-247-51.3c-41.4,14.5-76.5,43.4-103,78c-26.7,35-46.3,79.7-40.4,124.5c-2,12.1-1.7,25-0.8,37.2c1,11.9,3.5,23.6,7,35c7.2,23.5,19.5,45.5,34.5,64.9c29.6,38.2,72.2,68.9,120,78.7c90.5,18.5,191.9-14.8,242.4-94.9C480.9,336.3,490.4,286.1,488.8,239.1z M473.7,296.6c-8.5,46.6-30.6,89.2-67.4,119.6c-35.7,29.4-81,45.7-126.8,49c-23,1.7-45.9-0.4-68.3-5.4c-23.4-5.2-45.4-16.4-64.8-30.5c-27.1-19.7-49.5-45.7-65.1-75.3c-7.6-14.5-13.3-30.4-16.5-46.5c-2.9-14.8-4-31.3-2-46.6c0.8-0.9,1.2-2.2,0.9-3.9c-0.1-0.4-0.1-0.8-0.1-1.2c0-0.1,0-0.3,0.1-0.4c0.3-1.4,0-2.7-0.6-3.7c-5-47.7,19.9-94,50.7-128.8c16.1-18.2,35-34.1,56.1-46.3c18.9-10.9,40.4-17.7,61.7-22.3c43.8-9.5,91.8-8,134.1,7.6c20.4,7.5,39.2,18.7,54.9,33.7c16.8,16,29.3,36.7,38.5,57.8C478.2,198.2,482.4,249,473.7,296.6z"/><path d="M431.1,141.5c-23.7-39-65.6-63.3-110.2-69.7c-46.5-6.7-91,7.2-131.4,29.7c-40.9,22.8-79.2,57.3-94.4,102.7c-3.9,11.8-6,23.8-6.6,36.3c0,0.3,0,0.6,0,0.8c-0.5,4.5-0.9,9.1-1.2,13.6c-1.6,1.8-1.4,4-0.3,5.6c-0.5,15.8,0.6,31.5,4,47.1c4.9,22.6,14.7,44.2,28.2,63c13.5,18.8,31,34.5,51.2,45.9c20.6,11.6,44.3,17.6,67.7,20.1c46.6,5.1,95.1-5.4,134.1-31.7c40.6-27.4,65.6-72,76.8-118.9c2.2-9.2,3.9-18.6,4.9-28.1c1.3-1.6,1.4-4,0.6-6C457.8,213.7,451.1,174.4,431.1,141.5z M254.1,87.6c0.3-0.4,0.5-0.9,0.7-1.3c7.2-1.8,14.4-3.1,21.7-4c-2.8,8.5-3.2,17.9-5.3,26.6c-0.8,3.3-3.4,3.7-6.6,3.9c-3.9,0.3-7.8,0.1-11.7-0.1c-0.3-3.5-0.6-7.1-0.7-10.6C252.1,98,251.5,91.2,254.1,87.6z M100.1,232.2c0-0.3,0.1-0.5,0.1-0.8c7.1-0.4,14.3-1.5,21.2,0.3c0.4,0.2,0.8,0.4,1.2,0.6c0,0.1,0.1,0.3,0.2,0.6c0.6,1.9,0.4,4.4,0.4,6.3c0,2.8-0.2,5.5-0.4,8.3c-7.7,1.3-16.3,0.2-23.9,1.6c0.4-4.7,0.9-9.5,1.6-14.2C100.6,234,100.4,233,100.1,232.2z M252.5,426.5c-2.5-6.6-2.5-14.7-2.5-21.5c0-2.7,0-6.5,0.9-8.6c0.8-1.9,6.9-3.1,8.9-3.6c3.4-0.9,7.3-1.3,10.8-0.7c1.2,0.2,0.5-0.5,0.9,0.5c0.7,1.7,0.8,3.5,1,5.2c0.7,7,0.1,13.9,0,20.9c0,0.2,0,0.4,0,0.6v1.8c0,3.1,2.1,4.7,4.5,4.9C268.9,426.8,260.7,426.9,252.5,426.5z M438.3,283.8c-11,47.2-37.5,90.6-79.2,116.4C335,415.1,307.3,423.5,279,426c2.4-0.6,4.4-2.5,4.4-5.6c0-10,1.2-19.9-1-29.8c-2.6-11.5-16.1-10.5-25.1-8.5c-4.6,1-9.6,2.6-13.2,5.7c-3.7,3.2-4.6,7.5-4.9,12.1c-0.6,7.8-0.6,17.5,1.5,25.7c-5.8-0.6-11.6-1.4-17.3-2.5c-20.6-3.8-40.1-11-57.6-22.5c-16.9-11.1-31.1-26.3-42.1-43.2c-19.2-29.4-26.5-63-25.5-97.1c3.8-1.5,9.8-1,13.1-1.2c6.2-0.3,12.6-0.3,18.6-2.1c2.5-0.8,3.6-3.2,3.7-5.6c0.1-8.9,3.8-22.8-5.2-28.6c-7.4-4.7-17.3-3.4-26.1-2.7c8.8-40,38.1-72.6,71.4-95.8c20.8-14.5,43.9-26.7,68.2-34.4c-1.9,9.2-0.2,20,0.8,28.4c0.4,3.2,2.8,5,5.9,5.1c9.9,0.1,25.4,3.4,31.5-7.1c5.8-9.8,3.3-22.7,8-33c0.3-0.7,0.5-1.5,0.5-2.1c4.8-0.3,9.6-0.3,14.5-0.2c44.8,1.5,88.3,22.6,114.4,59.4c16.3,23,24.4,50.1,26.4,77.9c-14-0.4-35.2-2.8-40.3,13c-3,9.4,0.4,19,8.7,24.2c4.8,3,11.7,2.7,17.1,2.8c3.7,0.1,7.4,0,11.1,0.1c0.8,0,1.6,0.1,2.3,0.2C441.7,267.2,440.2,275.6,438.3,283.8z M443.8,248.2c-2.6-0.3-5.3-0.6-7.9-0.6c-5-0.1-10,0.1-15-0.6c-6.5-0.9-10.1-8.9-5.9-14.5c2.5-3.3,10.9-2.9,14.5-3.1c4.9-0.2,9.9,0,14.8,0.1C444.4,235.7,444.2,241.9,443.8,248.2z"/><path d="M251.9,237.6c-1.1,0.7-1.9,1.8-2.3,3.3c-2.8,11,3.3,21.5,13.8,25.4c9.4,3.5,21.4,1.5,25.7-8.6C299.3,233.7,256.7,218.7,251.9,237.6z M278.5,254.3c-2,4-8.6,2.9-11.8,1.6c-5.3-2.2-7.6-6.6-6.5-11.9c1.3-1,2.2-2.4,2.3-4.4c-0.1,1.5-0.1,0.5,1.9,0.3c2.7-0.2,5.5,0.6,7.9,1.7C277.4,243.8,281.4,248.7,278.5,254.3z"/><path d="M392 177.6c-.5-1-1.3-1.9-2.6-2.5-7.5-3.6-18.2 2.7-25.6 4.6-14.5 3.8-29.2 7.3-43.7 11.2-26.3 7-53.6 13.1-80.6 16.7-.4 0-.7.1-1 .2-1.1-.2-2.4 0-3.6.7-7.6 4.2-12.1 13.2-16.6 20.2-6 9.5-14.4 17.5-21.9 25.8-18 20-34.6 41-51.6 61.9-4.2 5.2 2.9 11.9 7.5 8.1 10-.2 20-2.2 29.7-4 13-2.4 26.1-4.8 39-7.6 16-3.4 31.9-7.3 47.9-10.8 9-2 19.5-2.1 27.9-6.5 1.1-.3 2.1-.9 2.8-1.7.1-.1.2-.2.4-.2 1.5-1.1 2.2-2.5 2.3-3.9.3-.3.7-.7 1.1-1 1.7-1.6 3.3-3.4 4.9-5 4.2-4.2 7.2-9.3 10.8-14 8-10.4 17.3-19.6 25.8-29.6 8.7-10.3 17.1-20.9 26-31.1 7.3-8.3 17.6-15.1 22-25.6C393.9 181.2 393.3 179.1 392 177.6zM372.2 192c-4.6 4.5-9 9-13.1 13.9-9.5 11.2-18.5 22.8-28.4 33.7-9.4 10.4-18.1 20.6-26.4 31.9-3.1 4.2-7.1 7.8-10.8 11.5-.9.9-1.7 2-2.3 3.1-7.6 3.8-17.9 3.8-25.8 5.6-15.4 3.4-30.6 7.1-46 10.4-12.7 2.7-25.4 5-38.2 7.4-6.3 1.2-12.8 2.4-19.2 3.2 13.1-16.3 26.2-32.5 40.2-48.1 7.8-8.6 16.5-16.9 23.1-26.5 4.2-6.2 8-15.1 14.3-19.6.3 0 .6 0 .9 0 26-3.5 51.6-9.9 77.2-15.8 14.1-3.3 28.2-6.8 42.2-10.5 4.9-1.3 9.8-2.6 14.6-4.2.9-.3 1.8-.6 2.8-.9C375.6 188.7 373.9 190.4 372.2 192zM274.1 139.6c-2.4 4.4-3.5 9.7-4 15.1-6.2-6-13.1-11.6-21.5-11.2-.7 0-1.3.2-1.9.4-2.2.7-4.2 2.5-4.2 5.5v19c0 7.1 11 6.2 11-.8v-12c2.5 1.4 4.9 3.6 6.6 5.2 3.9 3.3 7.4 7.1 11.2 10.4 3.9 3.3 9.1.2 9.1-4.6.1-7 .1-15.9 3.4-22.1C287.3 138.2 277.4 133.3 274.1 139.6zM281 339.1c-7-7.6-19-2.4-27.7-5.7.9-.7 2.3-1.6 3.2-2.1 1.4-.8 3.2-1.4 4.8-1.6 2-.3 2.5-.2 3.1.5 5 5.1 12.2-3.3 7.3-8.3-6.5-6.6-18.3-2.4-24.5 2.4-3.3 2.6-6.1 6.4-5.7 10.8.6 5.5 5.7 8 10.4 9.3 5 1.5 10.3 1.1 15.5 1.2 1.8 0 3.7.1 5.4.8 1.1.5.2 2.3-.1 3.5-1.1 4.5-10.3 4.6-14.1 4.6-2.5 0-5 0-7.5-.3-1.3-.1-2.5-.4-3.7-.8 0 0 0 0-.1 0-1.7-5.8-11.4-4.7-10.8 2 1.2 11.6 18.2 10.2 26.4 10.1 6.5-.1 15-3.3 18.6-8.9C284.9 351.5 285.2 343.7 281 339.1z"/></svg>