<svg xmlns="http://www.w3.org/2000/svg" id="Layer_1" x="0" y="0" version="1.1" viewBox="0 0 128 128" xml:space="preserve"><path fill="#fff" d="M64 9A55 55 0 1 0 64 119A55 55 0 1 0 64 9Z" transform="rotate(-45.001 64 64.001)"/><path fill="#dfe8f4" d="M64 24A40 40 0 1 0 64 104A40 40 0 1 0 64 24Z"/><path fill="#444b54" d="M64,122c-14.9,0-29.7-5.7-41-17C0.4,82.4,0.4,45.6,23,23c22.6-22.6,59.4-22.6,82,0c1.2,1.2,1.2,3.1,0,4.2 c-1.2,1.2-3.1,1.2-4.2,0C80.5,7,47.5,7,27.2,27.2C7,47.5,7,80.5,27.2,100.8c20.3,20.3,53.3,20.3,73.5,0c1.2-1.2,3.1-1.2,4.2,0 c1.2,1.2,1.2,3.1,0,4.2C93.7,116.3,78.9,122,64,122z"/><path fill="#444b54" d="M79 67h30.8l-9.9 9.9c-1.2 1.2-1.2 3.1 0 4.2 1.2 1.2 3.1 1.2 4.2 0l15-15c.6-.6.9-1.4.9-2.1 0-.8-.3-1.5-.9-2.1l-15-15c-.6-.6-1.4-.9-2.1-.9s-1.5.3-2.1.9c-1.2 1.2-1.2 3.1 0 4.2l9.9 9.9H79c-1.7 0-3 1.3-3 3S77.3 67 79 67zM64 61A3 3 0 1 0 64 67 3 3 0 1 0 64 61z"/></svg>