<svg xmlns="http://www.w3.org/2000/svg" xmlns:xlink="http://www.w3.org/1999/xlink" width="512" height="512" viewBox="0 0 512 512"><path fill="none" d="M447.4,125.9c-3-10.9-7.5-21.4-13.6-31c-12.8-20.3-31.1-37.8-52.4-49c-8.6-4.5-20.3-10-30.2-7.1c-9.8,2.8-14.7,11.8-18,20.8c-3.8,10.3-5.7,21.1-8.4,31.7c-3.2,12.4-8.3,24.3-12.3,36.5c-9.2,28.1-16.4,56.7-23,85.5c4.7-2,9.5-3.8,14.3-5.5c7.1-2.6,13.9-6.1,20.7-9.4c14.5-7.2,28.3-15.7,42.7-23.1c14.4-7.4,28.8-14.6,43.1-22.3c11.1-6,22.2-11.7,32.1-19.5c-0.3-2.5,1.1-5.1,4.4-5.1h2c0,0,0.1,0,0.1,0C448.2,127.7,447.7,127,447.4,125.9z"/><path fill="none" d="M454 128.7c-.6.3-1.3.5-2 .5 1.2.8 2.1 2 2.1 3.7 0 6.4-8.2 10.6-13 13.8-6.1 4.1-12.4 7.7-18.9 11-15.5 7.8-30.7 16-46.1 24-15.4 7.9-30.2 16.8-45.6 24.6-6.7 3.4-13.4 7-20.4 9.7-5.3 2-10.7 3.7-15.9 5.9 1.6.9 3 2 4.4 3.3 2.5 2.1 5.1 5.2 8.3 6.2 2.2.7 4 2.4 4 4.7 5-1.7 9.9-3.4 14.9-5 .2-.7.7-1.4 1.4-2.1 14.5-12.9 31.1-22.9 47.8-32.5 16.6-9.6 32.6-20 49.5-28.9 12.1-6.4 29-14.4 29.4-30C454.2 134.5 454.2 131.6 454 128.7zM259.2 75.9c-1.8-4.4-4-8.6-6.3-12.7-1.2 39.4-7.2 78.7-9.3 118-.6 10.7-1.1 21.4-1.7 32.1-.6 8.9-1.9 17.8-2.1 26.7-.1 5.8.5 14.1-.9 21.2 5.1-1.7 10-3.8 15-5.9 1.9-6.3-.2-13.5.6-20 1.1-8.9 2.5-17.7 2.9-26.7.8-18.2 2.4-36.5 3.2-54.7.8-17.6 1.5-35.4 1.8-53C262.6 92.5 262.6 84 259.2 75.9zM490.2 233c-1-2.4-2.2-4.6-3.5-6.8 4 25.2 2.4 51.3-4.5 76.6-13.1 48.2-41.7 91.8-78.1 125.8-37.6 35.1-85.2 57.4-136.1 64.8-25.5 3.7-51.5 3.9-77 .6-6.2-.8-12.4-1.8-18.6-2.9 29.9 9.4 61.5 13.3 92.8 12.1 49.3-1.9 99-14.7 137.4-46.9 36.9-31 61.8-74.6 77.9-119.5 8.1-22.5 15.6-47 15.6-71.1C496.3 254.4 494.7 243.3 490.2 233z"/><path fill="#C56528" d="M454,128.7c-0.6,0.3-1.3,0.5-2,0.5c1.2,0.8,2.1,2,2.1,3.7c0,6.4-8.2,10.6-13,13.8c-6.1,4.1-12.4,7.7-18.9,11c-15.5,7.8-30.7,16-46.1,24c-15.4,7.9-30.2,16.8-45.6,24.6c-6.7,3.4-13.4,7-20.4,9.7c-5.3,2-10.7,3.7-15.9,5.9c1.6,0.9,3,2,4.4,3.3c2.5,2.1,5.1,5.2,8.3,6.2c2.2,0.7,4,2.4,4,4.7c5-1.7,9.9-3.4,14.9-5c0.2-0.7,0.7-1.4,1.4-2.1c14.5-12.9,31.1-22.9,47.8-32.5c16.6-9.6,32.6-20,49.5-28.9c12.1-6.4,29-14.4,29.4-30C454.2,134.5,454.2,131.6,454,128.7z"/><path fill="#BCBCBC" d="M259.2,75.9c-1.8-4.4-4-8.6-6.3-12.7c-1.2,39.4-7.2,78.7-9.3,118c-0.6,10.7-1.1,21.4-1.7,32.1c-0.6,8.9-1.9,17.8-2.1,26.7c-0.1,5.8,0.5,14.1-0.9,21.2c5.1-1.7,10-3.8,15-5.9c1.9-6.3-0.2-13.5,0.6-20c1.1-8.9,2.5-17.7,2.9-26.7c0.8-18.2,2.4-36.5,3.2-54.7c0.8-17.6,1.5-35.4,1.8-53C262.6,92.5,262.6,84,259.2,75.9z"/><path fill="#FEBF10" d="M447.4,125.9c-3-10.9-7.5-21.4-13.6-31c-12.8-20.3-31.1-37.8-52.4-49c-8.6-4.5-20.3-10-30.2-7.1c-9.8,2.8-14.7,11.8-18,20.8c-3.8,10.3-5.7,21.1-8.4,31.7c-3.2,12.4-8.3,24.3-12.3,36.5c-9.2,28.1-16.4,56.7-23,85.5c4.7-2,9.5-3.8,14.3-5.5c7.1-2.6,13.9-6.1,20.7-9.4c14.5-7.2,28.3-15.7,42.7-23.1c14.4-7.4,28.8-14.6,43.1-22.3c11.1-6,22.2-11.7,32.1-19.5c-0.3-2.5,1.1-5.1,4.4-5.1h2c0,0,0.1,0,0.1,0C448.2,127.7,447.7,127,447.4,125.9z"/><path fill="#BCBCBC" d="M490.2,233c-1-2.4-2.2-4.6-3.5-6.8c4,25.2,2.4,51.3-4.5,76.6c-13.1,48.2-41.7,91.8-78.1,125.8c-37.6,35.1-85.2,57.4-136.1,64.8c-25.5,3.7-51.5,3.9-77,0.6c-6.2-0.8-12.4-1.8-18.6-2.9c29.9,9.4,61.5,13.3,92.8,12.1c49.3-1.9,99-14.7,137.4-46.9c36.9-31,61.8-74.6,77.9-119.5c8.1-22.5,15.6-47,15.6-71.1C496.3,254.4,494.7,243.3,490.2,233z"/><path fill="#D6E5E5" d="M473.1,208.8c-1.7-1.7-3.5-3.3-5.3-4.8c-0.5-0.4-0.8-0.8-1.1-1.2c-7.1,2.6-15.1,2.7-22.4,4.6c-10.1,2.7-20.4,5.1-30.3,8.2c-10.3,3.2-20.3,6.9-30.6,10.2c-9.8,3.2-19.9,5.4-29.9,7.7c-21,4.9-40.7,13.4-61.5,19.1c-10.2,2.8-19.8,5.9-29.5,10c-9.1,3.9-18.1,7.9-27.7,10.4c-0.9,0.2-1.7,0.2-2.4,0.1c-0.2,0.1-0.3,0.2-0.5,0.3c-5.4,3.6-11-4.7-5.6-8.3c3.3-2.2,3.1-10.5,3.2-14c0.2-5.6,0.1-11.2,0.7-16.8c2-19.9,2.7-40,3.8-60c2.3-39.6,8.6-79.2,9-119c-8.2,0.2-16.4,1-24.5,2.2C139.7,70.1,63.3,127.9,40.7,205.5c0,0.9-0.2,1.7-0.7,2.6c-0.4,1.4-0.8,2.9-1.1,4.3c-0.5,1-1,2-1.4,3.1c-0.1,0.9-0.3,1.9-0.4,2.7c-0.9,4.1-2,8.2-2.7,12.3c-1.4,7.7-1.1,15.7-3.8,23c-0.2,2.1-0.5,4.2-0.8,6.3c0,0.3,0,0.5,0,0.7c-0.5,4.4-0.9,8.8-1.3,13.2c-0.8,9.2-1.2,18.4-1.1,27.6c0.3,18.1,2.4,36.2,6.9,53.7c8.7,33.3,25.5,64.8,52,87.3c18.2,15.5,39.5,25.7,62.4,32.3c25,7.3,51,11.4,77.1,11.5c51.5,0.1,103.2-13.9,145.6-43.7C442.5,392.4,497.7,296,473.1,208.8z"/><path d="M489.3,211.9c-2.4-3.1-5-6.1-7.8-8.9c-1.5-5.1-3.3-10.2-5.3-15.1c-1.8,1.9-3.8,3.7-5.9,5.4c-1.1-1.1-2.8-1.6-4.8-0.7c-7.5,3.3-16.5,3.3-24.4,5.4c-10.1,2.6-20.3,5.1-30.3,8.2c-10.3,3.2-20.4,6.9-30.6,10.2c-9.8,3.2-19.9,5.4-29.9,7.7c-0.4,0.1-0.8,0.2-1.1,0.3c12.5-8.8,26-16.3,39.2-23.9c9.3-5.3,18.2-11.1,27.4-16.7c9-5.5,18.8-9.7,27.6-15.4c6.8-4.4,14-10.1,18-17.4c3.5-6.3,2.9-14.2,2.9-21.1c0-13.4-5.8-30.7-19.3-35.9c-8-14.1-18.6-26.7-30.7-37.4c-15.5-13.6-35.7-27.3-56.8-28.3c-23.2-1.2-32.5,22.2-37.4,40.8c-2.7,10-4.3,20.3-7.8,30.1c-5.1,14.2-10.1,28.4-14.5,42.9c-7.5,24.8-13.6,50.1-19.3,75.4c-0.7,3.2,1.5,5.3,4,5.7c0,0.1,0.1,0.1,0.2,0.2c-0.6,2.5,0.5,5.4,3.8,6c3.3,0.6,5.9,3.3,8.3,5.5c2.1,1.8,4.2,3.4,6.6,4.7c-4.1,1.3-8.2,2.6-12.4,3.7c-8.4,2.3-16.4,4.8-24.4,8c0.2-3.9,0-7.9-0.1-11.9c-0.2-9,2.7-18.2,3.1-27.3c0.7-19.6,2.4-39.1,3.3-58.6c0.5-9.6,0.4-19.3,0.7-28.9c0.2-9.3,1.1-18.6,1.2-27.9c0.1-8.9-1-17.2-4.4-25.4c-3.2-7.8-7.9-15.1-11.7-22.6c-1-1.9-2.6-2.6-4.1-2.4v-0.7c-12.9-0.2-25.7,0.7-38.5,2.9C131.9,62.5,53.7,123,30.8,204c-3.3,5.5-3.8,13.1-5.2,19.2c-1,4.3-1.7,8.7-2.3,13.1c-0.1,0.4-0.1,0.9-0.2,1.3c-0.1,0.3-0.2,0.5-0.2,0.8c-0.8,4.2-1.5,8.4-2.1,12.6c0,0.1-0.1,0.1-0.1,0.2c-0.5,1.2-0.6,2.3-0.4,3.2c-1,8.1-1.7,16.2-2.3,24.3c-0.8,11.4-0.9,22.9-0.3,34.3c1.3,22.3,5.6,44.5,13.3,65.5c14.2,38.7,41.2,71.4,77.3,90.9c0.1,1.6,0.8,3.2,2.5,4.2c46.1,28.9,101.1,41.1,155.2,39.3c50.9-1.7,102.5-15.7,142.2-48.6c37-30.7,62.4-73.4,79.3-117.9C503.5,304.7,519.1,251.2,489.3,211.9z M312.4,127.8c4-12.2,9.1-24.1,12.3-36.5c2.7-10.6,4.7-21.4,8.4-31.7c3.3-9,8.3-17.9,18-20.8c10-2.9,21.6,2.6,30.2,7.1c21.4,11.2,39.6,28.7,52.4,49c6,9.6,10.6,20.1,13.6,31c0.3,1.1,0.8,1.8,1.5,2.4c0,0-0.1,0-0.1,0h-2c-3.3,0-4.7,2.6-4.4,5.1c-9.9,7.7-21,13.5-32.1,19.5c-14.2,7.7-28.7,14.9-43.1,22.3c-14.4,7.4-28.2,15.9-42.7,23.1c-6.8,3.4-13.5,6.8-20.7,9.4c-4.8,1.8-9.7,3.5-14.3,5.5C296,184.4,303.3,155.8,312.4,127.8z M298.8,225.1c-1.4-1.2-2.9-2.3-4.4-3.3c5.2-2.2,10.6-3.9,15.9-5.9c7-2.6,13.7-6.3,20.4-9.7c15.4-7.8,30.2-16.7,45.6-24.6c15.4-7.9,30.7-16.2,46.1-24c6.5-3.3,12.8-7,18.9-11c4.8-3.2,13-7.4,13-13.8c0-1.6-0.9-2.9-2.1-3.7c0.7-0.1,1.4-0.2,2-0.5c0.2,2.9,0.2,5.9,0.1,8.8c-0.4,15.6-17.3,23.6-29.4,30c-16.9,8.9-32.9,19.4-49.5,28.9c-16.7,9.7-33.4,19.6-47.8,32.5c-0.7,0.7-1.2,1.4-1.4,2.1c-5,1.6-9.9,3.3-14.9,5c-0.1-2.3-1.8-4-4-4.7C303.9,230.3,301.3,227.2,298.8,225.1z M252.9,63.2c2.3,4.2,4.5,8.3,6.3,12.7c3.3,8.1,3.3,16.5,3.2,25.1c-0.4,17.6-1,35.4-1.8,53c-0.8,18.2-2.3,36.5-3.2,54.7c-0.4,8.9-1.8,17.8-2.9,26.7c-0.8,6.4,1.2,13.7-0.6,20c-4.9,2.1-9.9,4.1-15,5.9c1.4-7.1,0.8-15.4,0.9-21.2c0.2-8.9,1.5-17.8,2.1-26.7c0.7-10.7,1.2-21.4,1.7-32.1C245.7,141.9,251.8,102.6,252.9,63.2z M86.3,442.4c-26.5-22.5-43.3-54-52-87.3c-4.6-17.5-6.6-35.6-6.9-53.7c-0.2-9.2,0.2-18.4,1.1-27.6c0.4-4.4,0.8-8.8,1.3-13.2c0-0.2,0-0.5,0-0.7c0.3-2.1,0.6-4.2,0.8-6.3c2.7-7.3,2.4-15.4,3.8-23c0.8-4.1,1.8-8.2,2.7-12.3c0.2-0.8,0.3-1.8,0.4-2.7c0.4-1,0.9-2.1,1.4-3.1c0.4-1.4,0.7-2.9,1.1-4.3c0.5-0.9,0.8-1.8,0.7-2.6c22.6-77.6,99-135.5,177.9-147.9c8.1-1.3,16.3-2,24.5-2.2c-0.4,39.7-6.7,79.3-9,119c-1.2,20-1.8,40-3.8,60c-0.6,5.6-0.4,11.2-0.7,16.8c-0.1,3.5,0.1,11.8-3.2,14c-5.4,3.6,0.2,11.9,5.6,8.3c0.2-0.1,0.3-0.2,0.5-0.3c0.7,0.1,1.5,0.1,2.4-0.1c9.6-2.5,18.6-6.5,27.7-10.4c9.7-4.1,19.4-7.3,29.5-10c20.8-5.6,40.5-14.2,61.5-19.1c10.1-2.3,20.1-4.5,29.9-7.7c10.2-3.3,20.3-7,30.6-10.2c10-3.1,20.2-5.6,30.3-8.2c7.3-1.9,15.3-2,22.4-4.6c0.3,0.4,0.6,0.8,1.1,1.2c1.8,1.6,3.6,3.2,5.3,4.8c24.5,87.2-30.7,183.6-101.8,233.7c-42.4,29.8-94.1,43.8-145.6,43.7c-26.1-0.1-52.1-4.2-77.1-11.5C125.8,468.1,104.5,457.9,86.3,442.4z M480.7,336.6c-16.1,45-41,88.5-77.9,119.5c-38.4,32.2-88.1,45-137.4,46.9c-31.3,1.2-62.9-2.8-92.8-12.1c6.2,1.2,12.4,2.1,18.6,2.9c25.5,3.3,51.5,3.1,77-0.6c50.9-7.4,98.5-29.7,136.1-64.8c36.4-33.9,65-77.6,78.1-125.8c6.9-25.3,8.4-51.4,4.5-76.6c1.3,2.2,2.4,4.5,3.5,6.8c4.5,10.3,6,21.4,6,32.5C496.3,289.7,488.8,314.1,480.7,336.6z"/></svg>