<svg xmlns="http://www.w3.org/2000/svg" xmlns:xlink="http://www.w3.org/1999/xlink" viewBox="0 0 100 100"><rect width="5" height="11" x="10.5" y="31.5" fill="#eeecd9"/><path fill="#1f212b" d="M15.5,43h-5c-0.276,0-0.5-0.224-0.5-0.5v-11c0-0.276,0.224-0.5,0.5-0.5h5c0.276,0,0.5,0.224,0.5,0.5 v11C16,42.776,15.776,43,15.5,43z M11,42h4V32h-4V42z"/><path fill="#60bd91" d="M84,73H15V25h69c2.209,0,4,1.791,4,4v40C88,71.209,86.209,73,84,73z"/><path fill="#1f212b" d="M84,74H15c-0.553,0-1-0.448-1-1V25c0-0.552,0.447-1,1-1h69c2.757,0,5,2.243,5,5v40 C89,71.757,86.757,74,84,74z M16,72h68c1.654,0,3-1.346,3-3V29c0-1.654-1.346-3-3-3H16V72z"/><path fill="#1f212b" d="M15,83c-0.553,0-1-0.448-1-1V20c0-1.654-1.346-3-3-3H8c-0.553,0-1-0.448-1-1s0.447-1,1-1h3 c2.757,0,5,2.243,5,5v62C16,82.552,15.553,83,15,83z"/><path fill="#1f212b" d="M79.499,68.899c-0.232,0-0.44-0.164-0.489-0.4c-0.055-0.271,0.12-0.535,0.391-0.589 c1.428-0.29,2.631-1.266,3.22-2.61c0.111-0.253,0.41-0.368,0.658-0.257c0.253,0.111,0.368,0.406,0.258,0.659 c-0.719,1.642-2.19,2.834-3.937,3.189C79.566,68.896,79.532,68.899,79.499,68.899z"/><path fill="#1f212b" d="M77.5,69h-1c-0.276,0-0.5-0.224-0.5-0.5s0.224-0.5,0.5-0.5h1c0.276,0,0.5,0.224,0.5,0.5 S77.776,69,77.5,69z"/><path fill="#1f212b" d="M83.5,59c-0.276,0-0.5-0.224-0.5-0.5v-24c0-2.481-2.019-4.5-4.5-4.5h-2c-0.276,0-0.5-0.224-0.5-0.5 s0.224-0.5,0.5-0.5h2c3.032,0,5.5,2.467,5.5,5.5v24C84,58.776,83.776,59,83.5,59z"/><rect width="5" height="9" x="15.5" y="48.5" fill="#eeecd9"/><path fill="#1f212b" d="M20.5,58h-5c-0.276,0-0.5-0.224-0.5-0.5v-9c0-0.276,0.224-0.5,0.5-0.5h5c0.276,0,0.5,0.224,0.5,0.5 v9C21,57.776,20.776,58,20.5,58z M16,57h4v-8h-4V57z"/><rect width="5" height="6" x="15.5" y="61.5" fill="#eeecd9"/><path fill="#1f212b" d="M20.5,68h-5c-0.276,0-0.5-0.224-0.5-0.5v-6c0-0.276,0.224-0.5,0.5-0.5h5c0.276,0,0.5,0.224,0.5,0.5 v6C21,67.776,20.776,68,20.5,68z M16,67h4v-5h-4V67z"/><rect width="27" height="7" x="43.5" y="73.5" fill="#eddc67"/><path fill="#1f212b" d="M70.5,81h-27c-0.276,0-0.5-0.224-0.5-0.5v-7c0-0.276,0.224-0.5,0.5-0.5h27 c0.276,0,0.5,0.224,0.5,0.5v7C71,80.776,70.776,81,70.5,81z M44,80h26v-6H44V80z"/><path fill="#1f212b" d="M46.5,81c-0.276,0-0.5-0.224-0.5-0.5v-4c0-0.276,0.224-0.5,0.5-0.5s0.5,0.224,0.5,0.5v4 C47,80.776,46.776,81,46.5,81z"/><path fill="#1f212b" d="M49.5,81c-0.276,0-0.5-0.224-0.5-0.5v-4c0-0.276,0.224-0.5,0.5-0.5s0.5,0.224,0.5,0.5v4 C50,80.776,49.776,81,49.5,81z"/><path fill="#1f212b" d="M52.5,81c-0.276,0-0.5-0.224-0.5-0.5v-1c0-0.276,0.224-0.5,0.5-0.5s0.5,0.224,0.5,0.5v1 C53,80.776,52.776,81,52.5,81z"/><path fill="#1f212b" d="M55.5,81c-0.276,0-0.5-0.224-0.5-0.5v-4c0-0.276,0.224-0.5,0.5-0.5s0.5,0.224,0.5,0.5v4 C56,80.776,55.776,81,55.5,81z"/><path fill="#1f212b" d="M58.5,81c-0.276,0-0.5-0.224-0.5-0.5v-4c0-0.276,0.224-0.5,0.5-0.5s0.5,0.224,0.5,0.5v4 C59,80.776,58.776,81,58.5,81z"/><path fill="#1f212b" d="M61.5,81c-0.276,0-0.5-0.224-0.5-0.5v-4c0-0.276,0.224-0.5,0.5-0.5s0.5,0.224,0.5,0.5v4 C62,80.776,61.776,81,61.5,81z"/><path fill="#1f212b" d="M64.5,81c-0.276,0-0.5-0.224-0.5-0.5v-4c0-0.276,0.224-0.5,0.5-0.5s0.5,0.224,0.5,0.5v4 C65,80.776,64.776,81,64.5,81z"/><path fill="#1f212b" d="M67.5,81c-0.276,0-0.5-0.224-0.5-0.5v-4c0-0.276,0.224-0.5,0.5-0.5s0.5,0.224,0.5,0.5v4 C68,80.776,67.776,81,67.5,81z"/><path fill="#1f212b" d="M52.5,78c-0.276,0-0.5-0.224-0.5-0.5v-1c0-0.276,0.224-0.5,0.5-0.5s0.5,0.224,0.5,0.5v1 C53,77.776,52.776,78,52.5,78z"/><g><rect width="9" height="7" x="30.5" y="73.5" fill="#eddc67"/><path fill="#1f212b" d="M39.5,81h-9c-0.276,0-0.5-0.224-0.5-0.5v-7c0-0.276,0.224-0.5,0.5-0.5h9c0.276,0,0.5,0.224,0.5,0.5 v7C40,80.776,39.776,81,39.5,81z M31,80h8v-6h-8V80z"/><path fill="#1f212b" d="M33.5,81c-0.276,0-0.5-0.224-0.5-0.5v-4c0-0.276,0.224-0.5,0.5-0.5s0.5,0.224,0.5,0.5v4 C34,80.776,33.776,81,33.5,81z"/><path fill="#1f212b" d="M36.5,81c-0.276,0-0.5-0.224-0.5-0.5v-1c0-0.276,0.224-0.5,0.5-0.5s0.5,0.224,0.5,0.5v1 C37,80.776,36.776,81,36.5,81z"/><path fill="#1f212b" d="M36.5,78c-0.276,0-0.5-0.224-0.5-0.5v-1c0-0.276,0.224-0.5,0.5-0.5s0.5,0.224,0.5,0.5v1 C37,77.776,36.776,78,36.5,78z"/></g><g><polygon fill="#60bd91" points="78.5,76.5 78.5,73.5 74.5,73.5 74.5,80.5 81.5,80.5 81.5,76.5"/><path fill="#1f212b" d="M81.5,81h-7c-0.276,0-0.5-0.224-0.5-0.5v-7c0-0.276,0.224-0.5,0.5-0.5h4c0.276,0,0.5,0.224,0.5,0.5 V76h2.5c0.276,0,0.5,0.224,0.5,0.5v4C82,80.776,81.776,81,81.5,81z M75,80h6v-3h-2.5c-0.276,0-0.5-0.224-0.5-0.5V74h-3V80z"/></g><g><rect width="6" height="7" x="20.5" y="73.5" fill="#60bd91"/><path fill="#1f212b" d="M26.5,81h-6c-0.276,0-0.5-0.224-0.5-0.5v-7c0-0.276,0.224-0.5,0.5-0.5h6c0.276,0,0.5,0.224,0.5,0.5 v7C27,80.776,26.776,81,26.5,81z M21,80h5v-6h-5V80z"/></g><g><circle cx="39.5" cy="33.5" r="3" fill="#b2b1c2"/><circle cx="39.5" cy="55.5" r="3" fill="#c6dff1"/><circle cx="39.5" cy="64.5" r="3" fill="#c6dff1"/><path fill="#1f212b" d="M39.5,37c-1.93,0-3.5-1.57-3.5-3.5s1.57-3.5,3.5-3.5s3.5,1.57,3.5,3.5S41.43,37,39.5,37z M39.5,31 c-1.379,0-2.5,1.122-2.5,2.5s1.121,2.5,2.5,2.5s2.5-1.122,2.5-2.5S40.879,31,39.5,31z"/><path fill="#1f212b" d="M39.5,68c-1.93,0-3.5-1.57-3.5-3.5s1.57-3.5,3.5-3.5s3.5,1.57,3.5,3.5S41.43,68,39.5,68z M39.5,62 c-1.379,0-2.5,1.122-2.5,2.5s1.121,2.5,2.5,2.5s2.5-1.122,2.5-2.5S40.879,62,39.5,62z"/><path fill="#1f212b" d="M39.5,59c-1.93,0-3.5-1.57-3.5-3.5s1.57-3.5,3.5-3.5s3.5,1.57,3.5,3.5S41.43,59,39.5,59z M39.5,53 c-1.379,0-2.5,1.122-2.5,2.5s1.121,2.5,2.5,2.5s2.5-1.122,2.5-2.5S40.879,53,39.5,53z"/></g><g><rect width="6" height="6" x="26.5" y="30.5" fill="#444445"/><path fill="#1f212b" d="M32.5,37h-6c-0.276,0-0.5-0.224-0.5-0.5v-6c0-0.276,0.224-0.5,0.5-0.5h6c0.276,0,0.5,0.224,0.5,0.5 v6C33,36.776,32.776,37,32.5,37z M27,36h5v-5h-5V36z"/></g><g><rect width="6" height="3" x="26.5" y="46.5" fill="#b2b1c2"/><rect width="6" height="3" x="26.5" y="52.5" fill="#b2b1c2"/><rect width="6" height="3" x="26.5" y="58.5" fill="#b2b1c2"/><rect width="6" height="3" x="26.5" y="64.5" fill="#b2b1c2"/><path fill="#1f212b" d="M32.5,50h-6c-0.276,0-0.5-0.224-0.5-0.5v-3c0-0.276,0.224-0.5,0.5-0.5h6c0.276,0,0.5,0.224,0.5,0.5 v3C33,49.776,32.776,50,32.5,50z M27,49h5v-2h-5V49z"/><path fill="#1f212b" d="M32.5,56h-6c-0.276,0-0.5-0.224-0.5-0.5v-3c0-0.276,0.224-0.5,0.5-0.5h6c0.276,0,0.5,0.224,0.5,0.5 v3C33,55.776,32.776,56,32.5,56z M27,55h5v-2h-5V55z"/><path fill="#1f212b" d="M32.5,62h-6c-0.276,0-0.5-0.224-0.5-0.5v-3c0-0.276,0.224-0.5,0.5-0.5h6c0.276,0,0.5,0.224,0.5,0.5 v3C33,61.776,32.776,62,32.5,62z M27,61h5v-2h-5V61z"/><path fill="#1f212b" d="M32.5,68h-6c-0.276,0-0.5-0.224-0.5-0.5v-3c0-0.276,0.224-0.5,0.5-0.5h6c0.276,0,0.5,0.224,0.5,0.5 v3C33,67.776,32.776,68,32.5,68z M27,67h5v-2h-5V67z"/></g><g><rect width="6" height="13" x="15.5" y="30.5" fill="#9dc4e8"/><rect width="3" height="3" x="18.5" y="30.5" fill="#3a83c1"/><rect width="3" height="3" x="18.5" y="40.5" fill="#3a83c1"/><path fill="#1f212b" d="M21.5,44h-6c-0.276,0-0.5-0.224-0.5-0.5v-13c0-0.276,0.224-0.5,0.5-0.5h6c0.276,0,0.5,0.224,0.5,0.5 v13C22,43.776,21.776,44,21.5,44z M16,43h5V31h-5V43z"/><path fill="#1f212b" d="M21.5,34h-3c-0.276,0-0.5-0.224-0.5-0.5v-3c0-0.276,0.224-0.5,0.5-0.5h3c0.276,0,0.5,0.224,0.5,0.5 v3C22,33.776,21.776,34,21.5,34z M19,33h2v-2h-2V33z"/><path fill="#1f212b" d="M21.5,44h-3c-0.276,0-0.5-0.224-0.5-0.5v-3c0-0.276,0.224-0.5,0.5-0.5h3c0.276,0,0.5,0.224,0.5,0.5 v3C22,43.776,21.776,44,21.5,44z M19,43h2v-2h-2V43z"/></g><g><circle cx="62" cy="49" r="17.5" fill="#c6dff1"/><circle cx="62" cy="49" r="13.5" fill="#4e6e91"/><circle cx="62" cy="49" r="5.5" fill="#c6dff1"/><g><path fill="#1f212b" d="M62,67c-9.925,0-18-8.075-18-18s8.075-18,18-18s18,8.075,18,18S71.925,67,62,67z M62,32 c-9.374,0-17,7.626-17,17s7.626,17,17,17s17-7.626,17-17S71.374,32,62,32z"/><path fill="#1f212b" d="M62,63c-7.72,0-14-6.28-14-14s6.28-14,14-14s14,6.28,14,14S69.72,63,62,63z M62,36 c-7.168,0-13,5.832-13,13s5.832,13,13,13s13-5.832,13-13S69.168,36,62,36z"/><path fill="#1f212b" d="M62,55c-3.309,0-6-2.691-6-6s2.691-6,6-6s6,2.691,6,6S65.309,55,62,55z M62,44 c-2.757,0-5,2.243-5,5s2.243,5,5,5c2.757,0,5-2.243,5-5S64.757,44,62,44z"/><path fill="#1f212b" d="M58.301,44.938c-0.821-2.324-1.256-5.177-1.291-8.479l1-0.011c0.033,3.191,0.449,5.936,1.234,8.156 L58.301,44.938z"/><path fill="#1f212b" d="M74.874,51.814c-2.855-1.59-5.368-2.571-7.683-3l0.182-0.983c2.423,0.449,5.036,1.466,7.987,3.109 L74.874,51.814z"/><path fill="#1f212b" d="M64.43,44.409l-0.76-0.649c1.59-1.861,3.841-3.665,6.69-5.36l0.512,0.859 C68.116,40.898,65.948,42.631,64.43,44.409z"/><path fill="#1f212b" d="M56.628,50.172c-2.396-0.449-5.084-1.497-7.988-3.112l0.486-0.874 c2.81,1.563,5.396,2.574,7.686,3.004L56.628,50.172z"/><path fill="#1f212b" d="M65.99,61.551c-0.033-3.191-0.449-5.936-1.234-8.156l0.943-0.333 c0.821,2.324,1.256,5.177,1.291,8.479L65.99,61.551z"/><path fill="#1f212b" d="M53.64,59.6l-0.512-0.859c2.756-1.639,4.924-3.372,6.442-5.15l0.76,0.649 C58.74,56.102,56.489,57.905,53.64,59.6z"/></g></g></svg>